<?xml version="1.0" standalone="no"?>
<!DOCTYPE svg PUBLIC "-//W3C//DTD SVG 20010904//EN"
 "http://www.w3.org/TR/2001/REC-SVG-20010904/DTD/svg10.dtd">
<svg version="1.0" xmlns="http://www.w3.org/2000/svg"
 width="554.000000pt" height="451.000000pt" viewBox="0 0 554.000000 451.000000"
 preserveAspectRatio="xMidYMid meet">

<g transform="translate(0.000000,451.000000) scale(0.100000,-0.100000)"
fill="#000000" stroke="none">
<path d="M1085 2736 c-4 -35 -4 -87 0 -115 l7 -50 51 -3 52 -3 0 -420 0 -420
-52 -3 -52 -3 -3 -102 c-2 -56 -1 -108 1 -114 2 -10 70 -13 292 -13 l289 0 0
115 0 115 -55 0 -55 0 0 276 c0 311 -1 309 67 185 20 -36 61 -111 93 -166 31
-55 76 -134 99 -175 23 -41 50 -86 61 -100 l19 -25 11 25 c6 14 31 57 55 95
24 39 51 85 60 104 9 19 30 58 49 85 18 28 55 93 82 143 27 51 54 95 61 97 10
4 13 -51 13 -269 l0 -275 -55 0 -55 0 0 -115 0 -115 290 0 290 0 6 24 c3 13 4
63 2 112 l-4 89 -54 5 -55 5 -3 423 -2 422 54 0 54 0 7 63 c5 51 4 102 -4 160
-1 4 -116 7 -256 7 -253 0 -255 0 -268 -22 -20 -33 -90 -156 -165 -288 -35
-63 -74 -132 -86 -152 -11 -21 -24 -38 -27 -38 -6 0 -72 109 -187 310 -33 58
-72 124 -86 148 l-25 42 -255 0 -254 0 -7 -64z"/>
<path d="M2837 2793 c-4 -3 -7 -57 -7 -119 0 -127 0 -127 80 -121 l35 2 0
-530 0 -530 -57 -3 -58 -3 0 -125 0 -124 708 2 707 3 3 259 c2 201 -1 261 -10
268 -15 9 -289 11 -312 2 -13 -5 -16 -25 -16 -120 l0 -114 -267 2 -268 3 -3
503 c-2 398 0 502 10 503 7 0 36 1 63 2 l50 2 3 123 3 122 -329 0 c-181 0
-332 -3 -335 -7z"/>
</g>
</svg>
